<svg xmlns="http://www.w3.org/2000/svg" xmlns:xlink="http://www.w3.org/1999/xlink" version="1.1" x="0px" y="0px" viewBox="0 0 640 600" enable-background="new 0 0 640 480" xml:space="preserve"><g><path fill="#000000" d="M279.714,409.785c0,0,30.002-122.861,1.575-212.541C252.848,107.579,198.395,44.835,159.66,57.127   c-38.735,12.279-47.1,94.927-18.652,184.599c28.428,89.679,105.429,182.684,105.429,182.684L279.714,409.785z"/><path fill="#000000" d="M508.512,195.449c-13.103-43.914-100.175-59.62-100.175-59.62c-39.747-8.454-70.824-20.683-90.395,71.336   c-19.55,92.018-3.18,203.897-3.18,203.897l38.652,13.348c0,0,40.582-40.853,56.781-64.974c-5.862-5.47-10.743-11.718-14.986-18.242   c-10.276-16.188-17.236-33.942-22.295-52.025c-5.058-18.116-8.314-36.623-10.244-55.213c-1.96-18.583-2.427-37.286-1.308-55.883   c0.037,18.603,1.611,37.18,4.28,55.516c2.732,18.331,6.778,36.458,12.532,53.973c5.843,17.434,13.405,34.764,22.649,50.343   c6.033,10.18,9.876,14.412,17.87,20.778c8.264,6.588,16.699,10.054,23.59,10.092C482.891,367.042,535.416,285.589,508.512,195.449z   "/></g></svg>